<?xml version="1.0" encoding="UTF-8" standalone="no"?>
<svg
   width="32"
   height="24"
   viewBox="0 0 32 24"
   fill="none"
   version="1.1"
   id="svg12"
   sodipodi:docname="favicon.svg"
   xmlns:inkscape="http://www.inkscape.org/namespaces/inkscape"
   xmlns:sodipodi="http://sodipodi.sourceforge.net/DTD/sodipodi-0.dtd"
   xmlns="http://www.w3.org/2000/svg"
   xmlns:svg="http://www.w3.org/2000/svg">
  <defs
     id="defs16" />
  <sodipodi:namedview
     id="namedview14"
     pagecolor="#ffffff"
     bordercolor="#666666"
     borderopacity="1.0"
     inkscape:pageshadow="2"
     inkscape:pageopacity="0.0"
     inkscape:pagecheckerboard="0"
     showgrid="false" />
  <path
     d="M22.6931 9.21986L17.0826 5.79313C16.7544 5.59184 16.3817 5.4858 16.0023 5.48572C15.6229 5.48563 15.2502 5.59149 14.9219 5.79263L9.30994 9.22017C8.98211 9.42097 8.70976 9.70927 8.51999 10.0562C8.3303 10.4032 8.22975 10.7967 8.22852 11.1975V18.0557C8.22946 18.4573 8.32979 18.8515 8.51963 19.1992C8.70947 19.5469 8.98204 19.8359 9.31031 20.0374L14.9194 23.4632C15.2477 23.6649 15.6206 23.7712 16.0003 23.7714C16.3799 23.7717 16.7529 23.6658 17.0815 23.4645L22.6952 20.036C23.0219 19.8337 23.2931 19.5445 23.4819 19.1972C23.6706 18.8499 23.7704 18.4565 23.7714 18.0558V11.1976C23.77 10.7971 23.6698 10.4039 23.4807 10.057C23.2916 9.71012 23.02 9.42152 22.6931 9.21986ZM9.87022 10.2456L11.6855 9.13693H20.3179L22.131 10.2443C22.2887 10.3415 22.4198 10.4806 22.5112 10.6477C22.6025 10.815 22.651 11.0045 22.6518 11.1976V12.7012H9.3479V11.1978C9.34877 11.0047 9.39741 10.8151 9.48909 10.648C9.5807 10.4809 9.71208 10.3422 9.87022 10.2456ZM22.1337 19.0117L20.337 20.109H11.6669L9.8708 19.012C9.71223 18.9149 9.58055 18.7755 9.4888 18.6077C9.39705 18.4399 9.34848 18.2497 9.3479 18.0558V16.545H22.6522V18.0558C22.6518 18.2491 22.6037 18.4389 22.5128 18.6066C22.4219 18.7742 22.2912 18.9138 22.1337 19.0117Z"
     fill="black"
     id="path10" />
  <text
     xml:space="preserve"
     style="font-style:normal;font-weight:normal;font-size:16px;line-height:1.25;font-family:sans-serif;letter-spacing:0.05px;fill:#000000;fill-opacity:1;stroke:none"
     x="10.888469"
     y="13.640832"
     id="text2497"><tspan
       sodipodi:role="line"
       id="tspan2495"
       x="10.888469"
       y="13.640832"
       rotate="359.60001 359.60001 359.60001 359.60001 0"
       dy="-0.050000001">dEXa</tspan></text>
</svg>
